<svg viewBox="0 0 484.85 158.39" xmlns="http://www.w3.org/2000/svg"><path d="m30.15 8.93a1.45 1.45 0 0 1 .41.06c1 .3 5.34 1.6 6.94 1.51a2.72 2.72 0 0 1 2.59.95 4.14 4.14 0 0 1 .71 1.13 20.51 20.51 0 0 1 1 5.75q.09 1.19.21 2.34a12 12 0 0 0 10.51 11.08c2.73.36 5.65.61 9.2.8h1.45a18.82 18.82 0 0 0 12.34-4.14 1.1 1.1 0 0 1 .79-.26 16.48 16.48 0 0 1 1.87.23 13.36 13.36 0 0 1 2 .88 16.34 16.34 0 0 0 3.64 1.43 10.84 10.84 0 0 0 2.43.27 14.32 14.32 0 0 0 4.34-.74 1.82 1.82 0 0 1 .51-.09c2.3-.08 6.6-.31 10.26-3a.92.92 0 0 1 1-.08 12.2 12.2 0 0 0 5.54 1.33c3.38 0 6.89-2.11 9-4.05a.78.78 0 0 1 .49-.21 36 36 0 0 0 11.62-3.12c.42-.18 1.51-.66 2.24-.88a1.67 1.67 0 0 1 .83 0 14.58 14.58 0 0 0 2.76.27 12.7 12.7 0 0 0 8.76-3.44 1.89 1.89 0 0 1 1.23-.51c7.87-.07 35.84-.32 37.35-.54 1-.13 2.05-.31 3.14-.49.29 0 1-.17 1.23.13s3.42 3.77 5.1 5.54a12.89 12.89 0 0 1 1.23 1.71 1.72 1.72 0 0 1 .13 1.63 46.72 46.72 0 0 0 -2.18 8.38c-.57 2.93-2.07 8.55-2.67 10.65l-.3.8c-2.35 5.23-4.9 10.8-7.31 16.33a21.05 21.05 0 0 0 -1.57 6.57c-.44 4.87 2.2 9.23 6.49 12.08a1.4 1.4 0 0 1 .63 1.19 26.13 26.13 0 0 1 -.8 4.82c-.32 1-2.2 1.88-1.79 8.23.11 1.61.26 4.24.34 6.52 0 1 .06 1.92.11 2.88.2 4.73.63 10.14 1.08 15.86.62 7.91 1.68 24.81 1.22 29.24a1.45 1.45 0 0 1 -1.18 1.29 81.2 81.2 0 0 1 -10.39.57h-154.75c-2.93 0-6.4 0-7.51-1.13s-1.55-4-1.44-5.22a24.09 24.09 0 0 1 .88-4.75 15 15 0 0 0 -2.15-12.56 1.71 1.71 0 0 1 -.28-1.6c.36-1 1.19-2.52 2-4.23 1.15-2.59 1.56-6.65 1.89-7.49s3.18-2.76 4-5.63a12.19 12.19 0 0 0 0-6.32 1.71 1.71 0 0 1 .19-1.21c2.55-4.56 2.1-9.11 1.82-11.94v-.15a3.19 3.19 0 0 1 .11-1.06c.11-.46.33-1.1.56-1.77a28.16 28.16 0 0 0 1.34-4.94c.57-3.71.84-7.43 1-10.9a17 17 0 0 1 .48-2.46 23.57 23.57 0 0 0 .8-9.15c0-.23 0-.87.05-1.34s.07-1 .08-1.44c0-.82.07-1.61.15-2.28q.39-3.3.8-6.58c.47-3.82 1-7.78 1.39-11.71.15-1.38.2-3 .23-4.51a1.61 1.61 0 0 1 .27-.84 10.25 10.25 0 0 0 1.41-3.31 11.5 11.5 0 0 0 -.9-7.31 1.3 1.3 0 0 1 -.11-.43c-.17-1.58-.25-3.24-.33-5a1 1 0 0 1 .11-.51 11.11 11.11 0 0 0 1-2.72.5.5 0 0 1 .49-.41zm-10.15-8.93a1.88 1.88 0 0 0 -1.06.32c-.83.52.2 3 .38 4.53s.53 3.09-1.11 4.22c-.3.21-.28 1-.25 1.56.16 3 .23 6 .61 8.9.2 1.58 1.33 2.36 1 3.94-.23 1.06-1.13.71-1.51 1.26s-.18 5.57-.47 8.23c-.64 5.89-1.41 11.77-2.12 17.66a31.11 31.11 0 0 0 -.25 3.2 28.46 28.46 0 0 0 -.07 4.61c.5 3.46-1.16 6.58-1.35 9.93s-.43 6.74-1 10.06c-.32 2.06-1.29 4-1.77 6.06a12 12 0 0 0 -.3 3.92c.27 2.7.55 5.28-1.22 7.73-2.7 3.73.12 6.42-.52 8.61s-4.29.78-4.31 7a11.94 11.94 0 0 1 -1.18 5c-1.31 3-3.49 8.1-3.49 10.73s1.89 2.38 2.67 3.67a6 6 0 0 1 .89 5.09 33.52 33.52 0 0 0 -1.19 6.44c-.38 4.46 2.18 10.03 3.62 12.07s8.53 3.65 13.93 3.65h154.72c6.86 0 15.26 0 18.4-4 4.22-5.34.26-34.62-.5-52-.15-3.35-.19-6.72-.5-10.07a4.23 4.23 0 0 1 1.29-3.5 2.7 2.7 0 0 0 .77-3c-1.24-4 2.76-7.3.35-11.48a4.75 4.75 0 0 0 -3.46-2.14 4.43 4.43 0 0 1 -3.45-4.34 13 13 0 0 1 .88-3.91c2.48-5.71 5.08-11.37 7.64-17.05.21-.45 2.41-8.48 3.2-12.53a33.19 33.19 0 0 1 2-7.28 11.74 11.74 0 0 0 1.06-6.18 4 4 0 0 0 -1.08-2.27c-2.69-3-5.56-5.79-8.18-8.83-.83-1-.86-3-2.25-3.55a3.49 3.49 0 0 0 -1.21-.16c-2.09 0-5.82.78-8.63 1.16-.45.07-26.56.42-38.69.48a4.76 4.76 0 0 0 -3.73 1.87 4.59 4.59 0 0 1 -3.74 2.06 5.87 5.87 0 0 1 -1.33-.16 8 8 0 0 0 -1.73-.19 16 16 0 0 0 -6.26 1.68 25.51 25.51 0 0 1 -8.82 2.5 8.22 8.22 0 0 0 -6.05 2.87 3.66 3.66 0 0 1 -2.79 1.36 4 4 0 0 1 -2.84-1.3c-.78-.8-1.12-1.48-2.72-1.54h-.07c-1.6 0-4 1.6-5.78 3.1-2.2 1.84-6.13 1.37-7.17 1.6a14.51 14.51 0 0 1 -3 .73 2.63 2.63 0 0 1 -.49-.05c-1.06-.24-3.48-1.91-5.94-2.38a39 39 0 0 0 -6.21-.5h-.06a2.71 2.71 0 0 0 -2 .72c-2.17 2.89-5.11 3.89-8.39 3.89h-1c-2.85-.15-5.7-.37-8.52-.74-1.92-.25-2.88-1.43-3.09-3.39-.36-3.56-.37-7.16-1.79-10.55a10.43 10.43 0 0 0 -4.26-5.32c-1-.6-2.11-1.07-3.08-1.74a3.82 3.82 0 0 0 -2.16-.75 3.46 3.46 0 0 0 -1.3.26 1.23 1.23 0 0 1 -.47.07c-1.5.02-5.26-1.47-5.8-1.52-.2 0-1.39 0-2.89 0-3 0-7.23 0-7.23 0-.39 0-.97-.32-1.58-.32zm439.3 36.26a1.2 1.2 0 0 1 1.19 1.2v26.9h15.45a1.19 1.19 0 0 1 1.19 1.19v6.28a1.19 1.19 0 0 1 -1.24 1.17h-24.45a1.19 1.19 0 0 1 -1.19-1.19v-34.35a1.2 1.2 0 0 1 1.19-1.2h7.81m-195.68 0h-30.57a1.19 1.19 0 0 0 -1.19 1.2v6.54a1.19 1.19 0 0 0 1.19 1.19h10.25v26.64a1.19 1.19 0 0 0 1.2 1.19h7.69a1.19 1.19 0 0 0 1.19-1.19v-26.64h10.26a1.19 1.19 0 0 0 1.17-1.19v-6.54a1.19 1.19 0 0 0 -1.19-1.2m58.22 35.18 12-34.38a1.17 1.17 0 0 1 1.12-.8h9.6a1.19 1.19 0 0 1 1.12.8l12 34.38a1.19 1.19 0 0 1 -1.11 1.56h-8.31a1.19 1.19 0 0 1 -1.14-.84l-1.42-4.62h-11.87l-1.37 4.61a1.2 1.2 0 0 1 -1.14.85h-8.36a1.18 1.18 0 0 1 -1.12-1.56zm14.21-11.39h7.35l-3.62-12h-.11zm61.09-23.79h-8.36a1.21 1.21 0 0 0 -1.14.85l-7.2 23.94h-.1l-7.15-23.93a1.2 1.2 0 0 0 -1.15-.86h-8.35a1.2 1.2 0 0 0 -1.13 1.59l12 34.37a1.17 1.17 0 0 0 1.12.8h9.49a1.2 1.2 0 0 0 1.13-.8l12-34.37a1.2 1.2 0 0 0 -1.13-1.59m38.51 0h-25.33a1.19 1.19 0 0 0 -1.19 1.2v34.37a1.19 1.19 0 0 0 1.19 1.17h25.5a1.19 1.19 0 0 0 1.2-1.17v-6.33a1.19 1.19 0 0 0 -1.19-1.2h-16.57v-6.14h7.61a1.19 1.19 0 0 0 1.2-1.19v-5.18a1.19 1.19 0 0 0 -1.2-1.19h-7.61v-5.6h16.4a1.19 1.19 0 0 0 1.19-1.19v-6.35a1.19 1.19 0 0 0 -1.19-1.2m-204.77 67.39c0-10.5 7.62-19.06 19.43-19.06s19.43 8.56 19.43 19.06-7.51 19.06-19.43 19.06-19.43-8.56-19.43-19.06zm10.3 0c0 6 3.36 10.6 9.13 10.6s9.19-4.57 9.19-10.6-3.3-10.65-9.19-10.65-9.13 4.61-9.13 10.65zm84.68 18.35h25.5a1.19 1.19 0 0 0 1.19-1.2v-6.3a1.19 1.19 0 0 0 -1.19-1.19h-16.56v-6.14h7.58a1.19 1.19 0 0 0 1.19-1.2v-5.17a1.19 1.19 0 0 0 -1.19-1.2h-7.58v-5.6h16.4a1.2 1.2 0 0 0 1.2-1.2v-6.34a1.19 1.19 0 0 0 -1.2-1.19h-25.34a1.19 1.19 0 0 0 -1.19 1.19v34.37a1.19 1.19 0 0 0 1.19 1.2m35.15-18.44c0 11 7.61 19.12 19.48 19.12a24.18 24.18 0 0 0 14.15-4.26 1.21 1.21 0 0 0 .5-1v-15.24a1.19 1.19 0 0 0 -1.13-1.21h-13.87a1.19 1.19 0 0 0 -1.19 1.19v4a1.2 1.2 0 0 0 1.19 1.2h5.95v5.56a9.94 9.94 0 0 1 -5.14 1.26c-6.49 0-10.12-4.64-9.62-11.84a9.85 9.85 0 0 1 9.68-9.28 13.44 13.44 0 0 1 7.67 2.52 1.18 1.18 0 0 0 1.58-.23l3.87-4.74a1.2 1.2 0 0 0 -.24-1.73 21.68 21.68 0 0 0 -13.26-4.32c-12.13 0-19.53 8.61-19.53 19m43.49.06c0-10.5 7.62-19.06 19.43-19.06s19.43 8.56 19.43 19.06-7.51 19.06-19.43 19.06-19.48-8.56-19.48-19.06zm10.3 0c0 6 3.36 10.6 9.13 10.6s9.19-4.57 9.19-10.6-3.36-10.65-9.2-10.65-9.17 4.61-9.17 10.65zm38.24 18.35h7.17a1.19 1.19 0 0 0 1.19-1.2v-19.6l13.46 20.26a1.19 1.19 0 0 0 1 .54h7.73a1.19 1.19 0 0 0 1.19-1.2v-34.34a1.19 1.19 0 0 0 -1.19-1.19h-7.17a1.19 1.19 0 0 0 -1.19 1.19v19.71l-13.42-20.36a1.18 1.18 0 0 0 -1-.54h-7.77a1.19 1.19 0 0 0 -1.19 1.19v34.37a1.19 1.19 0 0 0 1.19 1.2m-156.91-20.17c3.1 0 5-1.52 5-4.36s-2-4.36-5-4.36h-6.21v8.72h6.25m4.73 7s2.66 3.76 10.55 4.77a1.19 1.19 0 0 1 1.06 1.17v6.42a1.2 1.2 0 0 1 -1.27 1.19c-17.76-1.34-21.32-13.41-21.32-13.41v11.83a1.19 1.19 0 0 1 -1.19 1.2h-7.81a1.2 1.2 0 0 1 -1.19-1.2v-34.37a1.19 1.19 0 0 1 1.19-1.19h15.35c11.29 0 15.07 5.88 15.07 12.08 0 5.62-2.43 10.52-10.44 11.47m-6.72-56c3.1 0 5-1.53 5-4.36s-2-4.36-5-4.36h-6.26v8.72h6.25m4.73 7s2.66 3.77 10.55 4.77a1.2 1.2 0 0 1 1.06 1.18v6.41a1.19 1.19 0 0 1 -1.27 1.19c-17.75-1.3-21.32-13.37-21.32-13.37v11.83a1.19 1.19 0 0 1 -1.22 1.17h-7.78a1.19 1.19 0 0 1 -1.19-1.19v-34.35a1.2 1.2 0 0 1 1.19-1.2h15.35c11.29 0 15.07 5.89 15.07 12.08-.03 5.66-2.42 10.53-10.42 11.47" fill="#2c4a3c"/></svg>